<?xml version="1.0" encoding="UTF-8" standalone="no"?>
<!-- Created with Inkscape (http://www.inkscape.org/) -->

<svg
   width="1393.0725"
   height="192.27037"
   viewBox="0 0 368.58377 50.871536"
   version="1.1"
   id="svg1"
   inkscape:version="1.4.2 (ebf0e94, 2025-05-08)"
   sodipodi:docname="favicon.svg"
   inkscape:export-batch-path="/home/cyb3rc001/Projects/zavodchat"
   inkscape:export-batch-name="logo"
   inkscape:export-filename="logo.svg"
   inkscape:export-xdpi="96"
   inkscape:export-ydpi="96"
   xmlns:inkscape="http://www.inkscape.org/namespaces/inkscape"
   xmlns:sodipodi="http://sodipodi.sourceforge.net/DTD/sodipodi-0.dtd"
   xmlns="http://www.w3.org/2000/svg"
   xmlns:svg="http://www.w3.org/2000/svg">
  <sodipodi:namedview
     id="namedview1"
     pagecolor="#3c3c3c"
     bordercolor="#393939"
     borderopacity="0.24705882"
     inkscape:showpageshadow="2"
     inkscape:pageopacity="0.0"
     inkscape:pagecheckerboard="false"
     inkscape:deskcolor="#f4f4f4"
     inkscape:document-units="mm"
     showgrid="true"
     inkscape:zoom="0.3550049"
     inkscape:cx="533.79545"
     inkscape:cy="-46.478232"
     inkscape:window-width="2560"
     inkscape:window-height="1015"
     inkscape:window-x="0"
     inkscape:window-y="0"
     inkscape:window-maximized="1"
     inkscape:current-layer="g1">
    <inkscape:grid
       id="grid1"
       units="mm"
       originx="-0.057859052"
       originy="0.077441692"
       spacingx="0.99999998"
       spacingy="1"
       empcolor="#0099e5"
       empopacity="0.30196078"
       color="#0099e5"
       opacity="0.14901961"
       empspacing="5"
       enabled="true"
       visible="true" />
    <inkscape:page
       x="0"
       y="0"
       width="368.58377"
       height="50.871536"
       id="page1"
       margin="0"
       bleed="0" />
  </sodipodi:namedview>
  <defs
     id="defs1" />
  <g
     inkscape:label="Layer 1"
     inkscape:groupmode="layer"
     id="layer1"
     transform="translate(-0.05785906,0.07744169)">
    <g
       id="g1"
       transform="matrix(1.082529,0,0,1.1130613,-1.9177582,-3.4166275)">
      <path
         style="fill:#7b97f5;fill-opacity:1;stroke:#456bf0;stroke-width:7.40833;stroke-linecap:butt;stroke-linejoin:miter;stroke-dasharray:none;stroke-opacity:1;paint-order:markers fill stroke"
         d="m 5.5291667,45 10e-8,-14.004592 8.0000002,-9.525 14.650001,4.26e-4 V 6.7041667 H 45.000001 L 44.999999,45 Z"
         id="path1"
         sodipodi:nodetypes="cccccccc" />
      <g
         id="g2"
         transform="translate(0.56314758,0.22813274)">
        <rect
           style="fill:#ed9a1b;fill-opacity:1;stroke:none;stroke-width:0.368343;stroke-linecap:butt;stroke-linejoin:miter;stroke-dasharray:none;stroke-opacity:1;paint-order:markers fill stroke"
           id="rect2-3-1"
           width="7.0805364"
           height="6.8431125"
           x="31.820787"
           y="30.02227" />
        <rect
           style="fill:#ed9a1b;fill-opacity:1;stroke:none;stroke-width:0.368343;stroke-linecap:butt;stroke-linejoin:miter;stroke-dasharray:none;stroke-opacity:1;paint-order:markers fill stroke"
           id="rect2-3-1-3"
           width="7.0805364"
           height="6.8431125"
           x="22.362251"
           y="30.02227" />
        <rect
           style="fill:#ed9a1b;fill-opacity:1;stroke:none;stroke-width:0.368343;stroke-linecap:butt;stroke-linejoin:miter;stroke-dasharray:none;stroke-opacity:1;paint-order:markers fill stroke"
           id="rect2-3-1-3-1"
           width="7.0805364"
           height="6.8431125"
           x="12.903717"
           y="30.02227" />
      </g>
      <path
         style="font-size:48.2073px;font-family:'Arial Black';-inkscape-font-specification:'Arial Black, ';fill:#7b97f5;stroke:#456bf0;stroke-width:1.44622;paint-order:markers fill stroke"
         d="M 59.742799,9.0033527 H 89.919438 V 15.900198 L 70.57061,36.096419 H 90.6256 v 7.414697 H 57.88324 V 36.355345 L 77.02022,16.370972 H 59.742799 Z M 103.52482,26.610315 94.368256,25.645228 q 0.517852,-2.40095 1.482939,-3.766196 0.988627,-1.388784 2.824647,-2.400949 1.318168,-0.7297 3.624958,-1.129859 2.3068,-0.400158 4.99021,-0.400158 4.30759,0 6.92039,0.494313 2.61279,0.470775 4.35466,2.000792 1.22401,1.059242 1.93018,3.012956 0.70616,1.930175 0.70616,3.695579 v 11.039659 q 0,1.765404 0.21185,2.777569 0.23538,0.988627 0.98862,2.542182 h -8.99179 q -0.54139,-0.965087 -0.70616,-1.459401 -0.16477,-0.517851 -0.32954,-1.600633 -1.8831,1.812482 -3.74266,2.58926 -2.54218,1.035703 -5.90822,1.035703 -4.472355,0 -6.802689,-2.071407 -2.306794,-2.071407 -2.306794,-5.107902 0,-2.848185 1.671249,-4.684206 1.671249,-1.83602 6.167144,-2.730491 5.39037,-1.082781 6.991,-1.506478 1.60063,-0.447236 3.38958,-1.153397 0,-1.765404 -0.7297,-2.471566 -0.7297,-0.706162 -2.56572,-0.706162 -2.35388,0 -3.53081,0.753239 -0.91801,0.588468 -1.48294,2.21264 z m 8.30917,5.037286 q -1.97726,0.706162 -4.11928,1.247552 -2.9188,0.776778 -3.69558,1.530017 -0.80032,0.776778 -0.80032,1.765404 0,1.129859 0.77678,1.859559 0.80032,0.706162 2.33034,0.706162 1.60063,0 2.96587,-0.776778 1.38879,-0.776778 1.95372,-1.883098 0.58847,-1.129858 0.58847,-2.918801 z m 11.43982,-13.134605 h 9.98042 l 4.84897,15.841558 5.01375,-15.841558 h 9.67441 l -10.61596,24.99812 h -8.49748 z m 29.87063,12.569676 q 0,-5.719909 3.86035,-9.415488 3.86035,-3.719118 10.42765,-3.719118 7.50885,0 11.34566,4.354663 3.08357,3.50727 3.08357,8.638711 0,5.766986 -3.83681,9.462565 -3.81327,3.67204 -10.56888,3.67204 -6.02591,0 -9.74503,-3.060033 -4.56651,-3.789734 -4.56651,-9.93334 z m 9.60379,-0.02354 q 0,3.342498 1.34171,4.943131 1.36525,1.600633 3.41311,1.600633 2.07141,0 3.38958,-1.577094 1.34171,-1.577094 1.34171,-5.060825 0,-3.248343 -1.34171,-4.825437 -1.34171,-1.600633 -3.31896,-1.600633 -2.09494,0 -3.46019,1.624171 -1.36525,1.600633 -1.36525,4.896054 z M 212.79156,9.0033527 V 43.511116 h -8.96825 v -3.695579 q -1.8831,2.353872 -3.43665,3.177727 -2.07141,1.082781 -4.61359,1.082781 -5.10791,0 -7.81486,-3.883888 -2.68341,-3.883889 -2.68341,-9.439027 0,-6.214222 2.96588,-9.509643 2.98941,-3.295421 7.57946,-3.295421 2.23618,0 4.04866,0.753239 1.83602,0.753239 3.24835,2.259717 V 9.0033527 Z m -9.6038,21.9380873 q 0,-2.94234 -1.24755,-4.378202 -1.24755,-1.459401 -3.15419,-1.459401 -1.67125,0 -2.80111,1.388785 -1.12985,1.388784 -1.12985,4.660666 0,3.060034 1.15339,4.495896 1.17694,1.412323 2.89527,1.412323 1.83602,0 3.06003,-1.435862 1.22401,-1.435862 1.22401,-4.684205 z m 39.05073,-1.530017 9.34487,2.824646 q -0.94154,3.930966 -2.96587,6.567303 -2.02433,2.636337 -5.03729,3.978044 -2.98942,1.341707 -7.62655,1.341707 -5.62575,0 -9.20363,-1.624172 -3.55435,-1.64771 -6.14361,-5.766986 -2.58926,-4.119276 -2.58926,-10.545347 0,-8.568094 4.54297,-13.158144 4.56651,-4.6135893 12.89922,-4.6135893 6.52023,0 10.23934,2.6363363 3.74266,2.636337 5.55514,8.09732 l -9.41549,2.094946 q -0.49431,-1.577094 -1.0357,-2.306795 -0.89447,-1.224013 -2.1891,-1.883097 -1.29463,-0.659084 -2.89526,-0.659084 -3.62497,0 -5.55514,2.918801 -1.4594,2.165562 -1.4594,6.80269 0,5.743448 1.74186,7.885471 1.74187,2.118485 4.89606,2.118485 3.06003,0 4.61359,-1.718327 1.57709,-1.718326 2.28325,-4.990208 z M 256.12635,9.0033527 h 9.58026 V 21.714261 q 1.95371,-2.024329 3.88389,-2.895262 1.93017,-0.870933 4.56651,-0.870933 3.90743,0 6.1436,2.377411 2.25972,2.377411 2.25972,7.297003 V 43.511116 H 272.933 V 29.764504 q 0,-2.353872 -0.87094,-3.31896 -0.87093,-0.988626 -2.44802,-0.988626 -1.74187,0 -2.82465,1.318168 -1.08278,1.318169 -1.08278,4.731283 v 12.004747 h -9.58026 z m 40.88675,17.6069623 -9.15656,-0.965087 q 0.51785,-2.40095 1.48294,-3.766196 0.98862,-1.388784 2.82464,-2.400949 1.31817,-0.7297 3.62497,-1.129859 2.30679,-0.400158 4.9902,-0.400158 4.30759,0 6.92039,0.494313 2.6128,0.470775 4.35466,2.000792 1.22401,1.059242 1.93018,3.012956 0.70616,1.930175 0.70616,3.695579 v 11.039659 q 0,1.765404 0.21185,2.777569 0.23538,0.988627 0.98862,2.542182 h -8.99179 q -0.54139,-0.965087 -0.70616,-1.459401 -0.16477,-0.517851 -0.32954,-1.600633 -1.8831,1.812482 -3.74266,2.58926 -2.54218,1.035703 -5.90822,1.035703 -4.47235,0 -6.80269,-2.071407 -2.30679,-2.071407 -2.30679,-5.107902 0,-2.848185 1.67125,-4.684206 1.67125,-1.83602 6.16714,-2.730491 5.39037,-1.082781 6.991,-1.506478 1.60063,-0.447236 3.38958,-1.153397 0,-1.765404 -0.7297,-2.471566 -0.7297,-0.706162 -2.56572,-0.706162 -2.35388,0 -3.53081,0.753239 -0.91801,0.588468 -1.48294,2.21264 z m 8.30917,5.037286 q -1.97726,0.706162 -4.11928,1.247552 -2.9188,0.776778 -3.69558,1.530017 -0.80031,0.776778 -0.80031,1.765404 0,1.129859 0.77677,1.859559 0.80032,0.706162 2.33034,0.706162 1.60063,0 2.96588,-0.776778 1.38878,-0.776778 1.95371,-1.883098 0.58847,-1.129858 0.58847,-2.918801 z M 331.16778,9.0033527 v 9.5096433 h 5.27267 v 6.990999 h -5.27267 v 8.874098 q 0,1.600633 0.306,2.118485 0.47078,0.800316 1.64771,0.800316 1.05924,0 2.96588,-0.612007 l 0.70616,6.614381 q -3.55434,0.776777 -6.63792,0.776777 -3.57788,0 -5.27267,-0.91801 -1.69479,-0.91801 -2.51864,-2.777569 -0.80032,-1.883097 -0.80032,-6.072989 v -8.803482 h -3.53081 v -6.990999 h 3.53081 v -4.590051 z"
         id="text1"
         aria-label="ZavodChat"
         transform="scale(1.0140043,0.98618912)" />
    </g>
  </g>
</svg>
