<?xml version="1.0" encoding="UTF-8" standalone="no"?>
<svg
   width="18.000008"
   height="18.000008"
   viewBox="0 0 18.000008 18.000008"
   version="1.1"
   id="svg1"
   sodipodi:docname="add_cross.svg"
   inkscape:export-filename="add_cross.svg"
   inkscape:export-xdpi="96"
   inkscape:export-ydpi="96"
   inkscape:version="1.4.2 (ebf0e940d0, 2025-05-08)"
   xmlns:inkscape="http://www.inkscape.org/namespaces/inkscape"
   xmlns:sodipodi="http://sodipodi.sourceforge.net/DTD/sodipodi-0.dtd"
   xmlns="http://www.w3.org/2000/svg"
   xmlns:svg="http://www.w3.org/2000/svg">
  <defs
     id="defs1" />
  <sodipodi:namedview
     id="namedview1"
     pagecolor="#ffffff"
     bordercolor="#000000"
     borderopacity="0.25"
     inkscape:showpageshadow="2"
     inkscape:pageopacity="0.0"
     inkscape:pagecheckerboard="0"
     inkscape:deskcolor="#d1d1d1"
     inkscape:zoom="16.604167"
     inkscape:cx="2.2283563"
     inkscape:cy="13.882058"
     inkscape:window-width="1920"
     inkscape:window-height="1015"
     inkscape:window-x="0"
     inkscape:window-y="0"
     inkscape:window-maximized="1"
     inkscape:current-layer="svg1" />
  <path
     fill="currentColor"
     d="m 9.0000034,18.000003 q -0.425,0 -0.712,-0.288 -0.287,-0.288 -0.288,-0.712 v -7 h -7 q -0.42499995,0 -0.71199995,-0.2879996 -0.287,-0.288 -0.2880000017241,-0.712 -9.999999959e-4,-0.424 0.2880000017241,-0.712 0.289,-0.288 0.71199995,-0.288 h 7 v -7 q 0,-0.42499995 0.288,-0.71199995 0.288,-0.287 0.712,-0.2880000017241 0.424,-9.999999959e-4 0.713,0.2880000017241 0.2889996,0.289 0.2869996,0.71199995 v 7 h 7 q 0.425,0 0.713,0.288 0.288,0.288 0.287,0.712 -0.001,0.424 -0.288,0.713 -0.287,0.2889996 -0.712,0.2869996 h -7 v 7 q 0,0.425 -0.2879996,0.713 -0.288,0.288 -0.712,0.287"
     id="path1" />
</svg>
