<?xml version="1.0" encoding="UTF-8" standalone="no"?>
<svg
   width="24"
   height="24"
   viewBox="0 0 24 24"
   version="1.1"
   id="svg1"
   sodipodi:docname="channel_vc.svg"
   inkscape:version="1.4.2 (ebf0e940d0, 2025-05-08)"
   xmlns:inkscape="http://www.inkscape.org/namespaces/inkscape"
   xmlns:sodipodi="http://sodipodi.sourceforge.net/DTD/sodipodi-0.dtd"
   xmlns="http://www.w3.org/2000/svg"
   xmlns:svg="http://www.w3.org/2000/svg">
  <defs
     id="defs1" />
  <sodipodi:namedview
     id="namedview1"
     pagecolor="#9a9a9a"
     bordercolor="#000000"
     borderopacity="0.25"
     inkscape:showpageshadow="2"
     inkscape:pageopacity="0.0"
     inkscape:pagecheckerboard="0"
     inkscape:deskcolor="#d1d1d1"
     inkscape:zoom="33.208333"
     inkscape:cx="12.015056"
     inkscape:cy="12"
     inkscape:window-width="2560"
     inkscape:window-height="1015"
     inkscape:window-x="0"
     inkscape:window-y="0"
     inkscape:window-maximized="1"
     inkscape:current-layer="svg1" />
  <path
     fill="currentColor"
     d="M12 14q-1.25 0-2.125-.875T9 11V5q0-1.25.875-2.125T12 2t2.125.875T15 5v6q0 1.25-.875 2.125T12 14m-1 6v-2.075q-2.3-.325-3.937-1.95t-1.988-3.95q-.05-.425.225-.725T6 11t.713.288T7.1 12q.35 1.75 1.738 2.875T12 16q1.8 0 3.175-1.137T16.9 12q.1-.425.388-.712T18 11t.7.3t.225.725q-.35 2.275-1.975 3.925T13 17.925V20q0 .425-.288.713T12 21t-.712-.288T11 20"
     id="path1"
     style="fill:#f6f5f5;fill-opacity:1" />
</svg>
