<?xml version="1.0" encoding="UTF-8" standalone="no"?>
<svg
   width="24"
   height="24"
   viewBox="0 0 24 24"
   version="1.1"
   id="svg1"
   sodipodi:docname="add.svg"
   inkscape:export-filename="add_cross.svg"
   inkscape:export-xdpi="96"
   inkscape:export-ydpi="96"
   inkscape:version="1.4.2 (ebf0e940d0, 2025-05-08)"
   xmlns:inkscape="http://www.inkscape.org/namespaces/inkscape"
   xmlns:sodipodi="http://sodipodi.sourceforge.net/DTD/sodipodi-0.dtd"
   xmlns="http://www.w3.org/2000/svg"
   xmlns:svg="http://www.w3.org/2000/svg">
  <defs
     id="defs1" />
  <sodipodi:namedview
     id="namedview1"
     pagecolor="#ffffff"
     bordercolor="#000000"
     borderopacity="0.25"
     inkscape:showpageshadow="2"
     inkscape:pageopacity="0.0"
     inkscape:pagecheckerboard="0"
     inkscape:deskcolor="#d1d1d1"
     inkscape:zoom="5.8704595"
     inkscape:cx="20.44133"
     inkscape:cy="20.356158"
     inkscape:window-width="2560"
     inkscape:window-height="1015"
     inkscape:window-x="0"
     inkscape:window-y="0"
     inkscape:window-maximized="1"
     inkscape:current-layer="svg1" />
  <path
     fill="currentColor"
     d="m 12.100003,21.000003 q -0.425,0 -0.712,-0.288 -0.287,-0.288 -0.288,-0.712 v -7 H 4.1000033 q -0.4249999,0 -0.7119999,-0.288 -0.287,-0.288 -0.288,-0.712 -10e-4,-0.424 0.288,-0.712 0.289,-0.288 0.7119999,-0.288 H 11.100003 V 4.0000033 q 0,-0.4249999 0.288,-0.7119999 0.288,-0.287 0.712,-0.288 0.424,-0.001 0.713,0.288 0.289,0.289 0.287,0.7119999 v 6.9999997 h 7 q 0.425,0 0.713,0.288 0.288,0.288 0.287,0.712 -0.001,0.424 -0.288,0.713 -0.287,0.289 -0.712,0.287 h -7 v 7 q 0,0.425 -0.288,0.713 -0.288,0.288 -0.712,0.287"
     id="path1" />
</svg>
