<?xml version="1.0" encoding="UTF-8" standalone="no"?>
<svg
   width="24"
   height="24"
   viewBox="0 0 24 24"
   version="1.1"
   id="svg1"
   xmlns="http://www.w3.org/2000/svg"
   xmlns:svg="http://www.w3.org/2000/svg">
  <defs
     id="defs1" />
  <path
     id="path1"
     d="M 3.9999998,2.6965782 C 3.4506665,2.6972449 2.9798904,2.8931355 2.5878904,3.2844688 2.1958904,3.6758022 1.9999998,4.1465782 1.9999998,4.6965782 V 20.270797 c -6.667e-4,0.450666 0.2026615,0.764786 0.6113281,0.939453 0.4086667,0.174667 0.771224,0.103776 1.0878907,-0.212891 L 5.9999998,18.696578 H 20 c 0.550667,6.67e-4 1.020776,-0.195891 1.412109,-0.587891 C 21.803443,17.716687 22,17.246578 22,16.696578 V 4.6965782 C 22.000667,4.1472449 21.804109,3.6764688 21.412109,3.2844688 21.020109,2.8924688 20.55,2.6965782 20,2.6965782 Z m 3,4 H 17 c 0.283333,0 0.521557,0.095109 0.712891,0.2871094 0.191333,0.192 0.286442,0.4302239 0.287109,0.7128906 6.67e-4,0.2826667 -0.09511,0.5208906 -0.287109,0.7128906 -0.192,0.192 -0.429558,0.2871094 -0.712891,0.2871094 H 6.9999998 c -0.282,0.00133 -0.520224,-0.094443 -0.7128906,-0.2871094 C 6.0944425,8.2168022 5.9993331,7.9792449 5.9999998,7.6965782 6.0006665,7.4139115 6.0957758,7.1756876 6.2871092,6.9836876 6.4784425,6.7916876 6.7166665,6.6965782 6.9999998,6.6965782 Z m 0,3 H 17 c 0.283333,0 0.521557,0.095109 0.712891,0.2871094 0.191333,0.1920004 0.286442,0.4302244 0.287109,0.7128904 6.67e-4,0.282667 -0.09511,0.520891 -0.287109,0.712891 -0.192,0.192 -0.429558,0.287109 -0.712891,0.287109 H 6.9999998 c -0.282,0.0013 -0.520224,-0.09444 -0.7128906,-0.287109 -0.1926667,-0.192667 -0.2877761,-0.430224 -0.2871094,-0.712891 6.667e-4,-0.282666 0.095776,-0.52089 0.2871094,-0.7128904 0.1913333,-0.192 0.4295573,-0.2871094 0.7128906,-0.2871094 z M 17.923828,12.499312 c 0.362326,-1.75e-4 0.671974,0.127054 0.927734,0.382813 0.25576,0.25576 0.383161,0.565582 0.382813,0.927734 v 0.523438 h 0.261719 c 0.144126,0 0.268371,0.05157 0.371094,0.154297 0.102723,0.102723 0.154471,0.225188 0.154296,0.36914 v 2.621094 c 0,0.144127 -0.05175,0.268371 -0.154296,0.371094 -0.102548,0.102723 -0.226793,0.152518 -0.371094,0.152344 h -3.144532 c -0.144127,0 -0.266592,-0.04979 -0.36914,-0.152344 -0.102549,-0.102548 -0.154123,-0.226792 -0.154297,-0.371094 v -2.621094 c 0,-0.144126 0.05157,-0.266591 0.154297,-0.36914 0.102723,-0.102548 0.225188,-0.154123 0.36914,-0.154297 h 0.263672 v -0.523438 c 0,-0.362502 0.127228,-0.672323 0.382813,-0.927734 0.255585,-0.25541 0.563454,-0.382638 0.925781,-0.382813 z M 6.9999998,12.696578 H 13 c 0.283333,0 0.521557,0.09511 0.712891,0.287109 0.191333,0.192 0.286442,0.430224 0.287109,0.712891 6.67e-4,0.282667 -0.09511,0.520891 -0.287109,0.712891 -0.192,0.192 -0.429558,0.287109 -0.712891,0.287109 H 6.9999998 c -0.282,0.0013 -0.520224,-0.09444 -0.7128906,-0.287109 -0.1926667,-0.192667 -0.2877761,-0.430224 -0.2871094,-0.712891 6.667e-4,-0.282667 0.095776,-0.520891 0.2871094,-0.712891 0.1913333,-0.192 0.4295573,-0.287109 0.7128906,-0.287109 z M 17.923828,13.02275 c -0.218374,0 -0.403779,0.07761 -0.55664,0.230469 -0.152862,0.152863 -0.228516,0.338265 -0.228516,0.55664 v 0.523438 h 1.572266 v -0.523438 c 0,-0.218375 -0.07565,-0.403777 -0.228516,-0.55664 -0.152862,-0.152861 -0.34022,-0.230469 -0.558594,-0.230469 z" />
</svg>
