<?xml version="1.0" encoding="UTF-8" standalone="no"?>
<svg
   width="24"
   height="24"
   viewBox="0 0 24 24"
   version="1.1"
   id="svg1"
   xmlns="http://www.w3.org/2000/svg"
   xmlns:svg="http://www.w3.org/2000/svg">
  <defs
     id="defs1" />
  <path
     fill="currentColor"
     d="M 12,14 Q 10.75,14 9.875,13.125 9,12.25 9,11 V 5 Q 9,3.75 9.875,2.875 10.75,2 12,2 13.25,2 14.125,2.875 15,3.75 15,5 v 6 q 0,1.25 -0.875,2.125 Q 13.25,14 12,14 m -1,6 V 17.925 Q 8.7,17.6 7.063,15.975 5.426,14.35 5.075,12.025 5.025,11.6 5.3,11.3 5.575,11 6,11 6.425,11 6.713,11.288 7.001,11.576 7.1,12 7.45,13.75 8.838,14.875 10.226,16 12,16 13.8,16 15.175,14.863 16.55,13.726 16.9,12 17,11.575 17.288,11.288 17.576,11.001 18,11 q 0.424,-10e-4 0.7,0.3 0.276,0.301 0.225,0.725 Q 18.575,14.3 16.95,15.95 15.325,17.6 13,17.925 V 20 q 0,0.425 -0.288,0.713 Q 12.424,21.001 12,21 11.576,20.999 11.288,20.712 11,20.425 11,20"
     id="path1" />
  <path
     fill="currentColor"
     d="m 17.686981,21.913283 c -0.176358,0 -0.327278,-0.06274 -0.452759,-0.188222 -0.125481,-0.125481 -0.188328,-0.276507 -0.188542,-0.453078 v -3.206504 c 0,-0.176357 0.06285,-0.327277 0.188542,-0.452758 0.125695,-0.125481 0.276615,-0.188329 0.452759,-0.188542 h 0.32065 v -0.641301 c 0,-0.443566 0.156371,-0.821613 0.469111,-1.13414 0.312741,-0.312527 0.690788,-0.468898 1.134141,-0.469112 0.443352,-2.13e-4 0.821506,0.156157 1.13446,0.469112 0.312955,0.312954 0.469219,0.691001 0.468791,1.13414 v 0.641301 h 0.32065 c 0.176358,0 0.327384,0.06285 0.453079,0.188542 0.125695,0.125695 0.188436,0.276614 0.188222,0.452758 v 3.206504 c 0,0.176357 -0.06274,0.327383 -0.188222,0.453078 -0.125481,0.125695 -0.276507,0.188436 -0.453079,0.188222 z m 0.961951,-4.489104 h 1.923902 v -0.641301 c 0,-0.267209 -0.09352,-0.494336 -0.28057,-0.681382 -0.187045,-0.187046 -0.414173,-0.280569 -0.681381,-0.280569 -0.267209,0 -0.494336,0.09352 -0.681382,0.280569 -0.187046,0.187046 -0.280569,0.414173 -0.280569,0.681382 z"
     id="path1-4"
     style="stroke-width:0.32065" />
</svg>
