<?xml version="1.0" encoding="UTF-8" standalone="no"?>
<svg
   width="16"
   height="20.000002"
   viewBox="0 0 16 20.000002"
   version="1.1"
   id="svg1"
   xmlns="http://www.w3.org/2000/svg"
   xmlns:svg="http://www.w3.org/2000/svg">
  <defs
     id="defs1" />
  <path
     fill="currentColor"
     d="M 2,20 C 1.45,20 0.9793333,19.804333 0.588,19.413 0.1966667,19.021667 6.667e-4,18.550667 0,18 V 2 C 0,1.45 0.196,0.97933331 0.588,0.58800001 0.98,0.19666671 1.4506667,6.6670927e-4 2,0 h 7.175 c 0.266667,0 0.521,0.05000001 0.763,0.15000001 0.242,0.1 0.454333,0.2416667 0.637,0.425 L 15.425,5.425 C 15.608333,5.6083333 15.75,5.821 15.85,6.063 15.95,6.305 16,6.559 16,6.825 V 18 c 0,0.55 -0.195667,1.021 -0.587,1.413 C 15.021667,19.805 14.550667,20.000667 14,20 Z M 9,6 C 9,6.2833333 9.096,6.521 9.288,6.713 9.48,6.905 9.717333,7.0006667 10,7 h 4 L 9,2 Z"
     id="path1" />
</svg>
